M48
; DRILL file KiCad 10.0.4 date 2026-07-16T16:48:35
; FORMAT={-:-/ absolute / metric / decimal}
; #@! TF.CreationDate,2026-07-16T16:48:35+02:00
; #@! TF.GenerationSoftware,Kicad,Pcbnew,10.0.4
; #@! TF.FileFunction,Plated,1,2,PTH
FMAT,2
METRIC
; #@! TA.AperFunction,Plated,PTH,ViaDrill
T1C0.300
; #@! TA.AperFunction,Plated,PTH,ComponentDrill
T2C0.800
; #@! TA.AperFunction,Plated,PTH,ComponentDrill
T3C1.500
; #@! TA.AperFunction,Plated,PTH,ComponentDrill
T4C1.700
%
G90
G05
T1
X65.0Y-115.0
X69.0Y-119.0
X107.0Y-150.0
X107.0Y-156.0
T2
X62.0Y-89.0
X62.0Y-91.54
X62.0Y-94.08
X62.0Y-96.62
X62.0Y-99.16
X62.0Y-101.7
X62.0Y-104.24
X62.0Y-106.78
X62.0Y-169.0
X62.0Y-171.54
X62.0Y-174.08
X62.0Y-176.62
X62.0Y-179.16
X62.0Y-181.7
X62.0Y-184.24
X62.0Y-186.78
X69.62Y-79.0
X69.62Y-84.0
X69.62Y-89.0
X69.62Y-91.54
X69.62Y-94.08
X69.62Y-96.62
X69.62Y-99.16
X69.62Y-101.7
X69.62Y-104.24
X69.62Y-106.78
X69.62Y-159.0
X69.62Y-164.0
X69.62Y-169.0
X69.62Y-171.54
X69.62Y-174.08
X69.62Y-176.62
X69.62Y-179.16
X69.62Y-181.7
X69.62Y-184.24
X69.62Y-186.78
X91.92Y-129.0
X102.08Y-129.0
X145.0Y-89.0
X145.0Y-91.54
X145.0Y-94.08
X145.0Y-96.62
X145.0Y-99.16
X145.0Y-101.7
X145.0Y-104.24
X145.0Y-106.78
X145.0Y-169.0
X145.0Y-171.54
X145.0Y-174.08
X145.0Y-176.62
X145.0Y-179.16
X145.0Y-181.7
X145.0Y-184.24
X145.0Y-186.78
X152.62Y-79.0
X152.62Y-84.0
X152.62Y-89.0
X152.62Y-91.54
X152.62Y-94.08
X152.62Y-96.62
X152.62Y-99.16
X152.62Y-101.7
X152.62Y-104.24
X152.62Y-106.78
X152.62Y-159.0
X152.62Y-164.0
X152.62Y-169.0
X152.62Y-171.54
X152.62Y-174.08
X152.62Y-176.62
X152.62Y-179.16
X152.62Y-181.7
X152.62Y-184.24
X152.62Y-186.78
T3
X35.0Y-49.0
X35.0Y-73.0
X35.0Y-97.0
X35.0Y-141.0
X35.0Y-165.0
X35.0Y-189.0
X47.0Y-61.0
X47.0Y-85.0
X47.0Y-109.0
X47.0Y-129.0
X47.0Y-153.0
X47.0Y-177.0
X85.0Y-61.0
X85.0Y-85.0
X85.0Y-109.0
X85.0Y-129.0
X85.0Y-177.0
X97.0Y-49.0
X97.0Y-73.0
X97.0Y-97.0
X97.0Y-165.0
X97.0Y-189.0
X118.0Y-61.0
X118.0Y-85.0
X118.0Y-109.0
X118.0Y-129.0
X118.0Y-177.0
X130.0Y-49.0
X130.0Y-73.0
X130.0Y-97.0
X130.0Y-165.0
X130.0Y-189.0
X168.0Y-49.0
X168.0Y-73.0
X168.0Y-97.0
X168.0Y-141.0
X168.0Y-165.0
X168.0Y-189.0
X180.0Y-61.0
X180.0Y-85.0
X180.0Y-109.0
X180.0Y-129.0
X180.0Y-153.0
X180.0Y-177.0
T4
X32.46Y-46.46
X32.46Y-51.54
X32.46Y-70.46
X32.46Y-75.54
X32.46Y-94.46
X32.46Y-99.54
X32.46Y-138.46
X32.46Y-143.54
X32.46Y-162.46
X32.46Y-167.54
X32.46Y-186.46
X32.46Y-191.54
X37.54Y-46.46
X37.54Y-51.54
X37.54Y-70.46
X37.54Y-75.54
X37.54Y-94.46
X37.54Y-99.54
X37.54Y-138.46
X37.54Y-143.54
X37.54Y-162.46
X37.54Y-167.54
X37.54Y-186.46
X37.54Y-191.54
X44.46Y-58.46
X44.46Y-63.54
X44.46Y-82.46
X44.46Y-87.54
X44.46Y-106.46
X44.46Y-111.54
X44.46Y-126.46
X44.46Y-131.54
X44.46Y-150.46
X44.46Y-155.54
X44.46Y-174.46
X44.46Y-179.54
X49.54Y-58.46
X49.54Y-63.54
X49.54Y-82.46
X49.54Y-87.54
X49.54Y-106.46
X49.54Y-111.54
X49.54Y-126.46
X49.54Y-131.54
X49.54Y-150.46
X49.54Y-155.54
X49.54Y-174.46
X49.54Y-179.54
X82.46Y-58.46
X82.46Y-63.54
X82.46Y-82.46
X82.46Y-87.54
X82.46Y-106.46
X82.46Y-111.54
X82.46Y-126.46
X82.46Y-131.54
X82.46Y-174.46
X82.46Y-179.54
X87.54Y-58.46
X87.54Y-63.54
X87.54Y-82.46
X87.54Y-87.54
X87.54Y-106.46
X87.54Y-111.54
X87.54Y-126.46
X87.54Y-131.54
X87.54Y-174.46
X87.54Y-179.54
X94.46Y-46.46
X94.46Y-51.54
X94.46Y-70.46
X94.46Y-75.54
X94.46Y-94.46
X94.46Y-99.54
X94.46Y-162.46
X94.46Y-167.54
X94.46Y-186.46
X94.46Y-191.54
X99.54Y-46.46
X99.54Y-51.54
X99.54Y-70.46
X99.54Y-75.54
X99.54Y-94.46
X99.54Y-99.54
X99.54Y-162.46
X99.54Y-167.54
X99.54Y-186.46
X99.54Y-191.54
X115.46Y-58.46
X115.46Y-63.54
X115.46Y-82.46
X115.46Y-87.54
X115.46Y-106.46
X115.46Y-111.54
X115.46Y-126.46
X115.46Y-131.54
X115.46Y-174.46
X115.46Y-179.54
X120.54Y-58.46
X120.54Y-63.54
X120.54Y-82.46
X120.54Y-87.54
X120.54Y-106.46
X120.54Y-111.54
X120.54Y-126.46
X120.54Y-131.54
X120.54Y-174.46
X120.54Y-179.54
X127.46Y-46.46
X127.46Y-51.54
X127.46Y-70.46
X127.46Y-75.54
X127.46Y-94.46
X127.46Y-99.54
X127.46Y-162.46
X127.46Y-167.54
X127.46Y-186.46
X127.46Y-191.54
X132.54Y-46.46
X132.54Y-51.54
X132.54Y-70.46
X132.54Y-75.54
X132.54Y-94.46
X132.54Y-99.54
X132.54Y-162.46
X132.54Y-167.54
X132.54Y-186.46
X132.54Y-191.54
X165.46Y-46.46
X165.46Y-51.54
X165.46Y-70.46
X165.46Y-75.54
X165.46Y-94.46
X165.46Y-99.54
X165.46Y-138.46
X165.46Y-143.54
X165.46Y-162.46
X165.46Y-167.54
X165.46Y-186.46
X165.46Y-191.54
X170.54Y-46.46
X170.54Y-51.54
X170.54Y-70.46
X170.54Y-75.54
X170.54Y-94.46
X170.54Y-99.54
X170.54Y-138.46
X170.54Y-143.54
X170.54Y-162.46
X170.54Y-167.54
X170.54Y-186.46
X170.54Y-191.54
X177.46Y-58.46
X177.46Y-63.54
X177.46Y-82.46
X177.46Y-87.54
X177.46Y-106.46
X177.46Y-111.54
X177.46Y-126.46
X177.46Y-131.54
X177.46Y-150.46
X177.46Y-155.54
X177.46Y-174.46
X177.46Y-179.54
X182.54Y-58.46
X182.54Y-63.54
X182.54Y-82.46
X182.54Y-87.54
X182.54Y-106.46
X182.54Y-111.54
X182.54Y-126.46
X182.54Y-131.54
X182.54Y-150.46
X182.54Y-155.54
X182.54Y-174.46
X182.54Y-179.54
M30
